<svg width="90" height="24" viewBox="0 0 90 24" fill="none" xmlns="http://www.w3.org/2000/svg">
<path d="M1.66407 0H7.38869C7.68694 0 7.83607 0 7.97618 0.0339859C8.1004 0.0641157 8.21901 0.113798 8.32755 0.181163C8.44999 0.25715 8.5544 0.363348 8.76322 0.575743L14.3156 6.22325C14.851 6.76779 15.1187 7.04007 15.2006 7.34429C15.2724 7.61136 15.2496 7.89498 15.136 8.14721C15.0066 8.43452 14.6988 8.66076 14.0832 9.11322L9.42267 12.5389C9.17562 12.7205 9.0521 12.8113 8.9881 12.9295C8.93173 13.0336 8.90746 13.152 8.91836 13.2698C8.93073 13.4035 9.00862 13.5354 9.1644 13.7991L14.3357 22.5534C14.6159 23.0278 14.756 23.2649 14.7367 23.4598C14.7199 23.6298 14.6312 23.7845 14.4929 23.8853C14.3344 24.0008 14.0584 24.0008 13.5064 24.0008H7.44595C7.08745 24.0008 6.9082 24.0008 6.7441 23.9533C6.59877 23.9113 6.46269 23.8424 6.343 23.75C6.20785 23.6458 6.10218 23.5014 5.89086 23.2125L0.929195 16.431C0.525804 15.8796 0.324109 15.604 0.27929 15.316C0.239876 15.0629 0.282752 14.8037 0.401642 14.5766C0.536834 14.3183 0.816642 14.1219 1.37626 13.729L7.00026 9.78104C7.30978 9.56376 7.46455 9.45511 7.53241 9.31409C7.59199 9.19028 7.60718 9.04982 7.57544 8.91618C7.5393 8.76398 7.41131 8.62491 7.15537 8.34679L0.954946 1.60921C0.48664 1.10033 0.252487 0.845893 0.241922 0.629157C0.232747 0.440928 0.312769 0.259335 0.458009 0.138795C0.625245 0 0.971521 0 1.66407 0Z" fill="white"/>
<path d="M19.7168 17.4996V6.52364H25.4928C26.3035 6.52364 26.9755 6.66231 27.5088 6.93964C28.0421 7.21697 28.4421 7.61164 28.7088 8.12364C28.9755 8.63564 29.1088 9.23831 29.1088 9.93164C29.1088 10.6463 28.9488 11.281 28.6288 11.8356C28.3088 12.3796 27.8395 12.7903 27.2208 13.0676L29.4928 17.4996H27.2208L25.2048 13.4196H21.7968V17.4996H19.7168ZM21.7968 11.6756H25.3328C25.8661 11.6756 26.2768 11.521 26.5648 11.2116C26.8528 10.9023 26.9968 10.4756 26.9968 9.93164C26.9968 9.57964 26.9328 9.28631 26.8048 9.05164C26.6768 8.80631 26.4901 8.61964 26.2448 8.49164C25.9995 8.36364 25.6955 8.29964 25.3328 8.29964H21.7968V11.6756Z" fill="white"/>
<path d="M33.0453 17.6916C32.2346 17.6916 31.5733 17.473 31.0613 17.0356C30.56 16.5876 30.3093 15.8303 30.3093 14.7636V9.08364H32.2613V14.4116C32.2613 14.7103 32.2933 14.961 32.3573 15.1636C32.432 15.3556 32.5333 15.5156 32.6613 15.6436C32.8 15.761 32.9653 15.8463 33.1573 15.8996C33.3493 15.953 33.5626 15.9796 33.7973 15.9796C34.1493 15.9796 34.464 15.8943 34.7413 15.7236C35.0293 15.553 35.2533 15.3183 35.4133 15.0196C35.584 14.7103 35.6693 14.3636 35.6693 13.9796V9.08364H37.6213V17.4996H36.0053L35.8453 16.3796H35.7333C35.5413 16.6356 35.312 16.865 35.0453 17.0676C34.7893 17.2596 34.4906 17.409 34.1493 17.5156C33.8186 17.633 33.4506 17.6916 33.0453 17.6916Z" fill="white"/>
<path d="M39.2214 17.4996V9.08364H40.8534L41.0134 10.2036H41.1254C41.3174 9.94764 41.5414 9.72364 41.7974 9.53164C42.0641 9.32897 42.3628 9.17431 42.6934 9.06764C43.0348 8.95031 43.4081 8.89164 43.8134 8.89164C44.3468 8.89164 44.8161 8.98764 45.2214 9.17964C45.6374 9.37164 45.9628 9.68097 46.1974 10.1076C46.4321 10.5343 46.5494 11.105 46.5494 11.8196V17.4996H44.5814V12.1716C44.5814 11.873 44.5441 11.6276 44.4694 11.4356C44.4054 11.233 44.3041 11.073 44.1654 10.9556C44.0374 10.8276 43.8774 10.737 43.6854 10.6836C43.4934 10.6303 43.2801 10.6036 43.0454 10.6036C42.6934 10.6036 42.3734 10.689 42.0854 10.8596C41.8081 11.0303 41.5841 11.265 41.4134 11.5636C41.2534 11.8623 41.1734 12.209 41.1734 12.6036V17.4996H39.2214Z" fill="white"/>
<path d="M51.7012 17.6916C50.8052 17.6916 50.0585 17.537 49.4612 17.2276C48.8638 16.9076 48.4158 16.4223 48.1172 15.7716C47.8185 15.121 47.6692 14.2943 47.6692 13.2916C47.6692 12.2783 47.8185 11.4516 48.1172 10.8116C48.4158 10.161 48.8638 9.68097 49.4612 9.37164C50.0585 9.05164 50.8052 8.89164 51.7012 8.89164C52.5118 8.89164 53.1892 9.04631 53.7332 9.35564C54.2878 9.65431 54.7038 10.1183 54.9812 10.7476C55.2585 11.377 55.3972 12.193 55.3972 13.1956V13.7716H49.6692C49.6905 14.2943 49.7705 14.737 49.9092 15.0996C50.0478 15.4516 50.2612 15.7183 50.5492 15.8996C50.8478 16.0703 51.2372 16.1556 51.7172 16.1556C51.9625 16.1556 52.1918 16.1236 52.4052 16.0596C52.6185 15.9956 52.8052 15.8996 52.9652 15.7716C53.1252 15.633 53.2478 15.4623 53.3332 15.2596C53.4292 15.057 53.4772 14.8223 53.4772 14.5556H55.3972C55.3972 15.089 55.3012 15.553 55.1092 15.9476C54.9278 16.3423 54.6665 16.6676 54.3252 16.9236C53.9945 17.1796 53.6052 17.3716 53.1572 17.4996C52.7092 17.6276 52.2238 17.6916 51.7012 17.6916ZM49.7012 12.3956H53.3652C53.3652 12.0436 53.3225 11.745 53.2372 11.4996C53.1625 11.2543 53.0505 11.0516 52.9012 10.8916C52.7625 10.7316 52.5918 10.6196 52.3892 10.5556C52.1865 10.481 51.9572 10.4436 51.7012 10.4436C51.2852 10.4436 50.9332 10.513 50.6452 10.6516C50.3678 10.7903 50.1545 11.0036 50.0052 11.2916C49.8558 11.5796 49.7545 11.9476 49.7012 12.3956Z" fill="white"/>
<path d="M56.7499 17.4996V6.52364H60.0299L61.7579 12.6356C61.8219 12.849 61.8859 13.089 61.9499 13.3556C62.0139 13.6223 62.0726 13.8783 62.1259 14.1236C62.1899 14.369 62.2379 14.5823 62.2699 14.7636H62.3979C62.4193 14.6036 62.4513 14.4063 62.4939 14.1716C62.5366 13.937 62.5846 13.6863 62.6379 13.4196C62.7019 13.1423 62.7713 12.8756 62.8459 12.6196L64.5739 6.52364H67.8219V17.4996H65.7419V11.9476C65.7419 11.457 65.7473 10.9663 65.7579 10.4756C65.7686 9.98497 65.7793 9.56364 65.7899 9.21164C65.8113 8.85964 65.8219 8.65164 65.8219 8.58764H65.6939C65.6726 8.68364 65.6193 8.89164 65.5339 9.21164C65.4486 9.53164 65.3579 9.87831 65.2619 10.2516C65.1659 10.625 65.0806 10.945 65.0059 11.2116L63.1979 17.4996H61.2779L59.4699 11.2276C59.4059 11.0036 59.3313 10.737 59.2459 10.4276C59.1713 10.1076 59.0913 9.78231 59.0059 9.45164C58.9313 9.12097 58.8619 8.83297 58.7979 8.58764H58.6699C58.6806 8.87564 58.6913 9.22231 58.7019 9.62764C58.7126 10.0223 58.7233 10.4276 58.7339 10.8436C58.7446 11.249 58.7499 11.617 58.7499 11.9476V17.4996H56.7499Z" fill="white"/>
<path d="M69.5939 7.78764V5.93164H71.5459V7.78764H69.5939ZM69.5939 17.4996V9.08364H71.5459V17.4996H69.5939Z" fill="white"/>
<path d="M73.1452 17.4996V9.08364H74.7772L74.9372 10.2036H75.0492C75.2412 9.94764 75.4652 9.72364 75.7212 9.53164C75.9878 9.32897 76.2865 9.17431 76.6172 9.06764C76.9585 8.95031 77.3318 8.89164 77.7372 8.89164C78.2705 8.89164 78.7398 8.98764 79.1452 9.17964C79.5612 9.37164 79.8865 9.68097 80.1212 10.1076C80.3558 10.5343 80.4732 11.105 80.4732 11.8196V17.4996H78.5052V12.1716C78.5052 11.873 78.4678 11.6276 78.3932 11.4356C78.3292 11.233 78.2278 11.073 78.0892 10.9556C77.9612 10.8276 77.8012 10.737 77.6092 10.6836C77.4172 10.6303 77.2038 10.6036 76.9692 10.6036C76.6172 10.6036 76.2972 10.689 76.0092 10.8596C75.7318 11.0303 75.5078 11.265 75.3372 11.5636C75.1772 11.8623 75.0972 12.209 75.0972 12.6036V17.4996H73.1452Z" fill="white"/>
<path d="M85.6249 17.6916C84.7289 17.6916 83.9823 17.537 83.3849 17.2276C82.7876 16.9076 82.3396 16.4223 82.0409 15.7716C81.7423 15.121 81.5929 14.2943 81.5929 13.2916C81.5929 12.2783 81.7423 11.4516 82.0409 10.8116C82.3396 10.161 82.7876 9.68097 83.3849 9.37164C83.9823 9.05164 84.7289 8.89164 85.6249 8.89164C86.4356 8.89164 87.1129 9.04631 87.6569 9.35564C88.2116 9.65431 88.6276 10.1183 88.9049 10.7476C89.1823 11.377 89.3209 12.193 89.3209 13.1956V13.7716H83.5929C83.6143 14.2943 83.6943 14.737 83.8329 15.0996C83.9716 15.4516 84.1849 15.7183 84.4729 15.8996C84.7716 16.0703 85.1609 16.1556 85.6409 16.1556C85.8863 16.1556 86.1156 16.1236 86.3289 16.0596C86.5423 15.9956 86.7289 15.8996 86.8889 15.7716C87.0489 15.633 87.1716 15.4623 87.2569 15.2596C87.3529 15.057 87.4009 14.8223 87.4009 14.5556H89.3209C89.3209 15.089 89.2249 15.553 89.0329 15.9476C88.8516 16.3423 88.5903 16.6676 88.2489 16.9236C87.9183 17.1796 87.5289 17.3716 87.0809 17.4996C86.6329 17.6276 86.1476 17.6916 85.6249 17.6916ZM83.6249 12.3956H87.2889C87.2889 12.0436 87.2463 11.745 87.1609 11.4996C87.0863 11.2543 86.9743 11.0516 86.8249 10.8916C86.6863 10.7316 86.5156 10.6196 86.3129 10.5556C86.1103 10.481 85.8809 10.4436 85.6249 10.4436C85.2089 10.4436 84.8569 10.513 84.5689 10.6516C84.2916 10.7903 84.0783 11.0036 83.9289 11.2916C83.7796 11.5796 83.6783 11.9476 83.6249 12.3956Z" fill="white"/>
</svg>
