<svg width="25" height="24" viewBox="0 0 25 24" fill="none" xmlns="http://www.w3.org/2000/svg">
<path fill-rule="evenodd" clip-rule="evenodd" d="M16.065 8.89572L14.4933 7.32406C14.2852 7.11497 14.0021 6.99792 13.708 6.99792H9.72133C9.10707 6.99792 8.60986 7.49513 8.60986 8.10939V15.8906C8.60986 16.5049 9.10707 17.0021 9.72133 17.0021H15.2796C15.8939 17.0021 16.3911 16.5049 16.3911 15.8906V9.68104C16.3911 9.38692 16.2741 9.1038 16.065 8.89572Z" stroke="black" stroke-width="1.5" stroke-linecap="round" stroke-linejoin="round"/>
<path d="M16.391 10.2493H13.7899C13.4308 10.2493 13.1396 9.95816 13.1396 9.59901V6.99792" stroke="black" stroke-width="1.5" stroke-linecap="round" stroke-linejoin="round"/>
<path fill-rule="evenodd" clip-rule="evenodd" d="M17.5024 21.0037H7.49825C5.28833 21.0037 3.49658 19.212 3.49658 17.0021V6.99791C3.49658 4.78799 5.28833 2.99625 7.49825 2.99625H17.5024C19.7123 2.99625 21.5041 4.78799 21.5041 6.99791V17.0021C21.5041 19.212 19.7123 21.0037 17.5024 21.0037Z" stroke="black" stroke-width="1.5" stroke-linecap="round" stroke-linejoin="round"/>
</svg>
