<svg width="25" height="24" viewBox="0 0 25 24" fill="none" xmlns="http://www.w3.org/2000/svg">
<path fill-rule="evenodd" clip-rule="evenodd" d="M14.8012 7.57414C15.7259 8.03676 16.4752 8.78744 16.9361 9.71303C18.123 12.0068 17.3664 14.8271 15.1909 16.2189C13.0153 17.6107 10.1376 17.1154 8.55259 15.0763C7.37009 13.5322 7.17868 11.4465 8.06039 9.71303C8.5223 8.78682 9.27306 8.03606 10.1993 7.57414C10.3552 7.4973 10.5398 7.50692 10.6869 7.59954C10.834 7.69216 10.9225 7.85451 10.9206 8.02833V12H14.0839V8.02833C14.0827 7.85565 14.1706 7.69455 14.3165 7.60217C14.4624 7.50979 14.6456 7.49919 14.8012 7.57414Z" stroke="black" stroke-width="1.5" stroke-linecap="round" stroke-linejoin="round"/>
<circle cx="12.5003" cy="12" r="9.00375" stroke="black" stroke-width="1.5" stroke-linecap="round" stroke-linejoin="round"/>
<path d="M9.99923 16.3268V20.6506" stroke="black" stroke-width="1.5" stroke-linecap="round" stroke-linejoin="round"/>
<path d="M15.0012 16.3278V20.6506" stroke="black" stroke-width="1.5" stroke-linecap="round" stroke-linejoin="round"/>
</svg>
