<svg width="25" height="24" viewBox="0 0 25 24" fill="none" xmlns="http://www.w3.org/2000/svg">
<path d="M18.8639 5.63604C22.3787 9.15076 22.3787 14.8492 18.8639 18.3639C15.3492 21.8787 9.65074 21.8787 6.13604 18.3639C2.62132 14.8492 2.62132 9.15074 6.13604 5.63604C9.65076 2.12132 15.3492 2.12132 18.8639 5.63604" stroke="black" stroke-width="1.5" stroke-linecap="round" stroke-linejoin="round"/>
<path fill-rule="evenodd" clip-rule="evenodd" d="M14.2048 15.333H11.3978C10.7798 15.333 10.2778 14.832 10.2778 14.213V12.051H14.2048C15.1038 12.051 15.8338 12.78 15.8338 13.68V13.705C15.8328 14.604 15.1038 15.333 14.2048 15.333V15.333Z" stroke="black" stroke-width="1.5" stroke-linecap="round" stroke-linejoin="round"/>
<path fill-rule="evenodd" clip-rule="evenodd" d="M13.8098 12.051H10.2778V9.80399C10.2778 9.17599 10.7868 8.66699 11.4148 8.66699H13.8098C14.7228 8.66699 15.4638 9.40699 15.4638 10.321V10.398C15.4638 11.311 14.7238 12.051 13.8098 12.051Z" stroke="black" stroke-width="1.5" stroke-linecap="round" stroke-linejoin="round"/>
<path d="M11.3899 8.67001H9.16992" stroke="black" stroke-width="1.5" stroke-linecap="round" stroke-linejoin="round"/>
<path d="M11.3999 15.33H9.16992" stroke="black" stroke-width="1.5" stroke-linecap="round" stroke-linejoin="round"/>
<path d="M13.73 7.56V8.67" stroke="black" stroke-width="1.5" stroke-linecap="round" stroke-linejoin="round"/>
<path d="M11 7.56V8.67" stroke="black" stroke-width="1.5" stroke-linecap="round" stroke-linejoin="round"/>
<path d="M11 16.44V15.33" stroke="black" stroke-width="1.5" stroke-linecap="round" stroke-linejoin="round"/>
<path d="M13.73 16.44V15.33" stroke="black" stroke-width="1.5" stroke-linecap="round" stroke-linejoin="round"/>
</svg>
