<svg width="45" height="24" viewBox="0 0 45 24" fill="none" xmlns="http://www.w3.org/2000/svg">
<path d="M29.4443 14.2277C30.6311 10.591 28.618 6.6891 24.9478 5.51253C23.8378 5.15679 22.6892 5.09087 21.6288 5.27422C21.4856 5.29915 21.2657 5.29545 21.0832 5.23692C20.4885 5.04635 20.1626 4.4146 20.3552 3.82579C20.4246 3.61306 20.5528 3.43549 20.7144 3.30347C24.4196 0.274891 29.5408 -0.866982 34.4412 0.703448C42.0735 3.14937 46.2594 11.2627 43.7912 18.8258C42.51 22.7516 38.2596 24.905 34.2975 23.6356C30.3354 22.3663 28.1631 18.1534 29.4443 14.2277Z" fill="black"/>
<path d="M15.5556 10.2035C14.3687 13.7299 16.3819 17.5136 20.052 18.6545C21.162 18.9995 22.3105 19.0634 23.371 18.8856C23.5142 18.8614 23.734 18.865 23.9166 18.9218C24.5113 19.1066 24.8372 19.7192 24.6446 20.2901C24.5752 20.4964 24.4471 20.6686 24.2854 20.7966C20.5802 23.7334 15.459 24.8407 10.5586 23.3179C2.92631 20.9461 -1.25962 13.0786 1.20865 5.74465C2.48979 1.93784 6.74015 -0.150295 10.7023 1.08058C14.6644 2.31143 16.8372 6.39641 15.5556 10.2035Z" fill="black"/>
</svg>
