<svg width="24" height="24" viewBox="0 0 24 24" fill="none" xmlns="http://www.w3.org/2000/svg">
<path fill-rule="evenodd" clip-rule="evenodd" d="M3 12C3 16.971 7.029 21 12 21C16.971 21 21 16.971 21 12C21 7.029 16.971 3 12 3C7.029 3 3 7.029 3 12ZM16.5306 10.5304C16.8235 10.2375 16.8235 9.76259 16.5306 9.4697C16.2377 9.17681 15.7628 9.17681 15.4699 9.4697L11.0002 13.9394L8.53057 11.4697C8.23768 11.1768 7.76281 11.1768 7.46991 11.4697C7.17702 11.7626 7.17702 12.2375 7.46991 12.5304L10.4699 15.5304C10.7628 15.8233 11.2377 15.8233 11.5306 15.5304L16.5306 10.5304Z" fill="black" fill-opacity="0.6"/>
</svg>
