<svg width="24" height="25" viewBox="0 0 24 25" fill="none" xmlns="http://www.w3.org/2000/svg">
<path d="M12 11.5C10.0851 11.5 8.517 9.93257 8.517 8.017H6.517C6.517 11.0374 8.98086 13.5 12 13.5V11.5ZM8.517 8.017C8.517 6.09159 10.0949 4.5 12 4.5V2.5C8.97107 2.5 6.517 5.00641 6.517 8.017H8.517ZM12 4.5C13.9149 4.5 15.483 6.06743 15.483 7.983H17.483C17.483 4.96257 15.0191 2.5 12 2.5V4.5ZM15.483 7.983C15.483 9.90841 13.9051 11.5 12 11.5V13.5C15.0289 13.5 17.483 10.9936 17.483 7.983H15.483ZM19 20.5H5V22.5H19V20.5ZM5 20.5H3C3 21.6023 3.89772 22.5 5 22.5V20.5ZM5 20.5V19.5H3V20.5H5ZM5 19.5C5 17.8523 6.35228 16.5 8 16.5V14.5C5.24772 14.5 3 16.7477 3 19.5H5ZM8 16.5H16V14.5H8V16.5ZM16 16.5C17.6477 16.5 19 17.8523 19 19.5H21C21 16.7477 18.7523 14.5 16 14.5V16.5ZM19 19.5V20.5H21V19.5H19ZM19 20.5V22.5C20.1023 22.5 21 21.6023 21 20.5H19Z" fill="black" fill-opacity="0.6"/>
</svg>
