<svg width="24" height="24" viewBox="0 0 24 24" fill="none" xmlns="http://www.w3.org/2000/svg">
<path fill-rule="evenodd" clip-rule="evenodd" d="M15.565 8.89584L13.9933 7.32418C13.7852 7.1151 13.5021 6.99805 13.208 6.99805H9.22133C8.60707 6.99805 8.10986 7.49525 8.10986 8.10951V15.8907C8.10986 16.505 8.60707 17.0022 9.22133 17.0022H14.7796C15.3939 17.0022 15.8911 16.505 15.8911 15.8907V9.68116C15.8911 9.38704 15.7741 9.10392 15.565 8.89584Z" stroke="black" stroke-opacity="0.6" stroke-linecap="round" stroke-linejoin="round"/>
<path d="M15.891 10.2494H13.2899C12.9308 10.2494 12.6396 9.95828 12.6396 9.59913V6.99805" stroke="black" stroke-opacity="0.6" stroke-linecap="round" stroke-linejoin="round"/>
<path fill-rule="evenodd" clip-rule="evenodd" d="M17.0024 21.0038H6.99825C4.78833 21.0038 2.99658 19.2121 2.99658 17.0022V6.998C2.99658 4.78808 4.78833 2.99634 6.99825 2.99634H17.0024C19.2123 2.99634 21.0041 4.78808 21.0041 6.998V17.0022C21.0041 19.2121 19.2123 21.0038 17.0024 21.0038Z" stroke="black" stroke-opacity="0.6" stroke-linecap="round" stroke-linejoin="round"/>
</svg>
