<svg width="24" height="24" viewBox="0 0 24 24" fill="none" xmlns="http://www.w3.org/2000/svg">
<path fill-rule="evenodd" clip-rule="evenodd" d="M14.3012 7.57423C15.2259 8.03685 15.9752 8.78754 16.4361 9.71313C17.623 12.0069 16.8664 14.8272 14.6909 16.219C12.5153 17.6108 9.63759 17.1155 8.05259 15.0764C6.87009 13.5323 6.67868 11.4466 7.56039 9.71313C8.0223 8.78691 8.77306 8.03615 9.69928 7.57423C9.8552 7.49739 10.0398 7.50701 10.1869 7.59963C10.334 7.69226 10.4225 7.85461 10.4206 8.02842V12.0001H13.5839V8.02842C13.5827 7.85574 13.6706 7.69464 13.8165 7.60226C13.9624 7.50988 14.1456 7.49928 14.3012 7.57423Z" stroke="black" stroke-opacity="0.6" stroke-linecap="round" stroke-linejoin="round"/>
<circle cx="12.0003" cy="12.0001" r="9.00375" stroke="black" stroke-opacity="0.6" stroke-linecap="round" stroke-linejoin="round"/>
<path d="M9.49923 16.3269V20.6507" stroke="black" stroke-opacity="0.6" stroke-linecap="round" stroke-linejoin="round"/>
<path d="M14.5012 16.3279V20.6507" stroke="black" stroke-opacity="0.6" stroke-linecap="round" stroke-linejoin="round"/>
</svg>
