<svg width="320" height="320" viewBox="0 0 320 320" fill="none" xmlns="http://www.w3.org/2000/svg">
<mask id="mask0_1080_3677" style="mask-type:luminance" maskUnits="userSpaceOnUse" x="7" y="7" width="305" height="305">
<path d="M13.7602 129.28C17.1181 129.28 19.8402 126.558 19.8402 123.2C19.8402 119.842 17.1181 117.12 13.7602 117.12C10.4023 117.12 7.68018 119.842 7.68018 123.2C7.68018 126.558 10.4023 129.28 13.7602 129.28Z" fill="white"/>
<path d="M7.68018 153.6H19.8402V147.52C19.8402 145.907 19.1996 144.361 18.0594 143.22C16.9192 142.08 15.3727 141.44 13.7602 141.44C12.1477 141.44 10.6012 142.08 9.46097 143.22C8.32075 144.361 7.68018 145.907 7.68018 147.52" fill="white"/>
<path d="M19.8402 153.6H7.68018V165.76H19.8402V153.6Z" fill="white"/>
<path d="M19.8403 177.92V165.76H7.68033L7.68033 171.84C7.68033 173.452 8.3209 174.999 9.46112 176.139C10.6013 177.279 12.1478 177.92 13.7603 177.92" fill="white"/>
<path d="M19.8403 214.399V202.239H13.7603C12.1478 202.239 10.6013 202.88 9.46112 204.02C8.3209 205.16 7.68033 206.707 7.68033 208.319C7.68033 209.932 8.3209 211.478 9.46112 212.619C10.6013 213.759 12.1478 214.399 13.7603 214.399" fill="white"/>
<path d="M32 117.12V104.96H25.92C24.3075 104.96 22.761 105.601 21.6208 106.741C20.4806 107.881 19.84 109.428 19.84 111.04C19.84 112.653 20.4806 114.199 21.6208 115.339C22.761 116.48 24.3075 117.12 25.92 117.12" fill="white"/>
<path d="M32 141.44V129.28H25.92C24.3075 129.28 22.761 129.92 21.6208 131.06C20.4806 132.201 19.84 133.747 19.84 135.36C19.84 136.972 20.4806 138.519 21.6208 139.659C22.761 140.799 24.3075 141.44 25.92 141.44" fill="white"/>
<path d="M32.0003 165.76H19.8403V177.92H32.0003V165.76Z" fill="white"/>
<path d="M32.0003 202.239H19.8403V214.399H32.0003V202.239Z" fill="white"/>
<path d="M32 104.96V117.12H38.08C39.6925 117.12 41.239 116.479 42.3792 115.339C43.5194 114.199 44.16 112.652 44.16 111.04C44.16 109.427 43.5194 107.881 42.3792 106.741C41.239 105.601 39.6925 104.96 38.08 104.96" fill="white"/>
<path d="M32 129.279V141.439H44.16V135.359C44.16 133.747 43.5194 132.2 42.3792 131.06C41.239 129.92 39.6925 129.279 38.08 129.279" fill="white"/>
<path d="M44.1602 141.44H32.0002V147.52C32.0002 149.132 32.6407 150.679 33.7809 151.819C34.9212 152.959 36.4676 153.6 38.0802 153.6C39.6927 153.6 41.2391 152.959 42.3794 151.819C43.5196 150.679 44.1602 149.132 44.1602 147.52" fill="white"/>
<path d="M44.16 165.76H32V177.92H44.16V165.76Z" fill="white"/>
<path d="M44.16 177.92H32V190.08H44.16V177.92Z" fill="white"/>
<path d="M44.16 190.08H32V202.24H44.16V190.08Z" fill="white"/>
<path d="M44.1602 202.239H32.0002V214.399H38.0802C39.6927 214.399 41.2392 213.759 42.3794 212.618C43.5196 211.478 44.1602 209.932 44.1602 208.319" fill="white"/>
<path d="M56.3203 129.279V117.119H50.2403C48.6278 117.119 47.0813 117.76 45.9411 118.9C44.8009 120.04 44.1603 121.587 44.1603 123.199C44.1603 124.812 44.8009 126.358 45.9411 127.499C47.0813 128.639 48.6278 129.279 50.2403 129.279" fill="white"/>
<path d="M56.3202 165.76H44.1602V177.92H56.3202V165.76Z" fill="white"/>
<path d="M56.3202 177.92H44.1602V190.08H56.3202V177.92Z" fill="white"/>
<path d="M56.3202 190.08H44.1602V202.24H56.3202V190.08Z" fill="white"/>
<path d="M56.3203 117.12V129.28H68.4803V123.2C68.4803 121.588 67.8397 120.041 66.6995 118.901C65.5593 117.761 64.0128 117.12 62.4003 117.12" fill="white"/>
<path d="M68.48 129.279H56.32V135.359C56.32 136.972 56.9606 138.518 58.1008 139.659C59.241 140.799 60.7875 141.439 62.4 141.439C64.0125 141.439 65.559 140.799 66.6992 139.659C67.8394 138.518 68.48 136.972 68.48 135.359" fill="white"/>
<path d="M68.4803 165.76H56.3203V177.92H68.4803V165.76Z" fill="white"/>
<path d="M68.4803 177.92H56.3203V190.08H68.4803V177.92Z" fill="white"/>
<path d="M68.4803 190.08H56.3203V202.24H68.4803V190.08Z" fill="white"/>
<path d="M68.48 214.399V202.239H56.32V208.319C56.32 209.932 56.9606 211.478 58.1008 212.619C59.241 213.759 60.7875 214.399 62.4 214.399" fill="white"/>
<path d="M68.48 153.6H80.64V147.52C80.64 145.907 79.9994 144.361 78.8592 143.22C77.719 142.08 76.1725 141.44 74.56 141.44C72.9475 141.44 71.401 142.08 70.2608 143.22C69.1206 144.361 68.48 145.907 68.48 147.52" fill="white"/>
<path d="M80.64 153.6H68.48V165.76H80.64V153.6Z" fill="white"/>
<path d="M80.64 165.76H68.48V177.92H80.64V165.76Z" fill="white"/>
<path d="M80.64 177.92H68.48V190.08H80.64V177.92Z" fill="white"/>
<path d="M80.64 202.239H68.48V214.399H80.64V202.239Z" fill="white"/>
<path d="M86.7201 117.12C90.078 117.12 92.8001 114.398 92.8001 111.04C92.8001 107.682 90.078 104.96 86.7201 104.96C83.3622 104.96 80.6401 107.682 80.6401 111.04C80.6401 114.398 83.3622 117.12 86.7201 117.12Z" fill="white"/>
<path d="M86.7201 141.439C90.078 141.439 92.8001 138.717 92.8001 135.359C92.8001 132.001 90.078 129.279 86.7201 129.279C83.3622 129.279 80.6401 132.001 80.6401 135.359C80.6401 138.717 83.3622 141.439 86.7201 141.439Z" fill="white"/>
<path d="M80.6401 153.6V165.76H86.7201C88.3327 165.76 89.8791 165.119 91.0193 163.979C92.1596 162.839 92.8001 161.292 92.8001 159.68C92.8001 158.067 92.1596 156.521 91.0193 155.38C89.8791 154.24 88.3327 153.6 86.7201 153.6" fill="white"/>
<path d="M80.6401 177.92V190.08H86.7201C88.3327 190.08 89.8791 189.439 91.0193 188.299C92.1596 187.159 92.8001 185.612 92.8001 184C92.8001 182.387 92.1596 180.841 91.0193 179.7C89.8791 178.56 88.3327 177.92 86.7201 177.92" fill="white"/>
<path d="M92.8001 202.239H80.6401V214.399H92.8001V202.239Z" fill="white"/>
<path d="M92.8003 202.239H104.96V190.079H98.8803C97.2678 190.079 95.7213 190.72 94.5811 191.86C93.4409 193 92.8003 194.547 92.8003 196.159" fill="white"/>
<path d="M104.96 202.239H92.8003V214.399H104.96V202.239Z" fill="white"/>
<path d="M104.96 32H117.12V25.92C117.12 24.3075 116.479 22.761 115.339 21.6208C114.199 20.4806 112.652 19.84 111.04 19.84C109.427 19.84 107.881 20.4806 106.741 21.6208C105.601 22.761 104.96 24.3075 104.96 25.92" fill="white"/>
<path d="M117.12 32H104.96V44.16H117.12V32Z" fill="white"/>
<path d="M117.12 44.1602H104.96V50.2402C104.96 51.8527 105.601 53.3991 106.741 54.5394C107.881 55.6796 109.428 56.3202 111.04 56.3202C112.653 56.3202 114.199 55.6796 115.339 54.5394C116.48 53.3991 117.12 51.8527 117.12 50.2402" fill="white"/>
<path d="M104.96 80.6396H117.12V68.4796H111.04C109.427 68.4796 107.881 69.1202 106.741 70.2604C105.601 71.4007 104.96 72.9471 104.96 74.5596" fill="white"/>
<path d="M117.12 80.6396H104.96V86.7196C104.96 88.3322 105.601 89.8786 106.741 91.0189C107.881 92.1591 109.428 92.7996 111.04 92.7996C112.653 92.7996 114.199 92.1591 115.339 91.0189C116.48 89.8786 117.12 88.3322 117.12 86.7196" fill="white"/>
<path d="M104.96 129.279H117.12V117.119H111.04C109.427 117.119 107.881 117.76 106.741 118.9C105.601 120.04 104.96 121.587 104.96 123.199" fill="white"/>
<path d="M117.12 129.279H104.96V141.439H117.12V129.279Z" fill="white"/>
<path d="M117.12 141.44H104.96V153.6H117.12V141.44Z" fill="white"/>
<path d="M117.12 153.6H104.96V165.76H117.12V153.6Z" fill="white"/>
<path d="M117.12 177.92V165.76H104.96V171.84C104.96 173.452 105.601 174.999 106.741 176.139C107.881 177.279 109.428 177.92 111.04 177.92" fill="white"/>
<path d="M104.96 190.08V202.24H117.12V196.16C117.12 194.548 116.479 193.001 115.339 191.861C114.199 190.721 112.652 190.08 111.04 190.08" fill="white"/>
<path d="M117.12 202.239H104.96V214.399H111.04C112.653 214.399 114.199 213.759 115.339 212.618C116.48 211.478 117.12 209.932 117.12 208.319" fill="white"/>
<path d="M104.96 287.359H117.12V281.279C117.12 279.667 116.479 278.12 115.339 276.98C114.199 275.84 112.652 275.199 111.04 275.199C109.427 275.199 107.881 275.84 106.741 276.98C105.601 278.12 104.96 279.667 104.96 281.279" fill="white"/>
<path d="M117.12 299.52V287.36H104.96V293.44C104.96 295.052 105.601 296.599 106.741 297.739C107.881 298.879 109.428 299.52 111.04 299.52" fill="white"/>
<path d="M129.28 68.4797H117.12V80.6397H129.28V68.4797Z" fill="white"/>
<path d="M117.12 117.12H129.28V104.96H123.2C121.588 104.96 120.041 105.601 118.901 106.741C117.761 107.881 117.12 109.428 117.12 111.04" fill="white"/>
<path d="M129.28 117.12H117.12V129.28H123.2C124.813 129.28 126.359 128.64 127.499 127.499C128.64 126.359 129.28 124.813 129.28 123.2" fill="white"/>
<path d="M129.28 153.6H117.12V165.76H129.28V153.6Z" fill="white"/>
<path d="M129.28 165.76H117.12V177.92H129.28V165.76Z" fill="white"/>
<path d="M123.2 250.88C126.558 250.88 129.28 248.158 129.28 244.8C129.28 241.442 126.558 238.72 123.2 238.72C119.842 238.72 117.12 241.442 117.12 244.8C117.12 248.158 119.842 250.88 123.2 250.88Z" fill="white"/>
<path d="M117.12 287.359V299.519H123.2C124.813 299.519 126.359 298.879 127.499 297.739C128.64 296.598 129.28 295.052 129.28 293.439C129.28 291.827 128.64 290.28 127.499 289.14C126.359 288 124.813 287.359 123.2 287.359" fill="white"/>
<path d="M129.28 19.8396H141.44V7.6796H135.36C133.748 7.6796 132.201 8.32017 131.061 9.46039C129.921 10.6006 129.28 12.1471 129.28 13.7596" fill="white"/>
<path d="M141.44 19.8396H129.28V25.9196C129.28 27.5321 129.921 29.0786 131.061 30.2188C132.201 31.359 133.747 31.9996 135.36 31.9996C136.972 31.9996 138.519 31.359 139.659 30.2188C140.799 29.0786 141.44 27.5321 141.44 25.9196" fill="white"/>
<path d="M129.28 68.4797H141.44V62.3997C141.44 60.7872 140.8 59.2407 139.659 58.1005C138.519 56.9603 136.973 56.3197 135.36 56.3197C133.748 56.3197 132.201 56.9603 131.061 58.1005C129.921 59.2407 129.28 60.7872 129.28 62.3997" fill="white"/>
<path d="M141.44 68.4797H129.28V80.6397H141.44V68.4797Z" fill="white"/>
<path d="M141.44 80.6396H129.28V92.7996H141.44V80.6396Z" fill="white"/>
<path d="M141.44 92.7998H129.28V104.96H141.44V92.7998Z" fill="white"/>
<path d="M141.44 104.96H129.28V117.12H135.36C136.973 117.12 138.519 116.479 139.66 115.339C140.8 114.199 141.44 112.652 141.44 111.04" fill="white"/>
<path d="M135.36 141.439C138.718 141.439 141.44 138.717 141.44 135.359C141.44 132.001 138.718 129.279 135.36 129.279C132.002 129.279 129.28 132.001 129.28 135.359C129.28 138.717 132.002 141.439 135.36 141.439Z" fill="white"/>
<path d="M141.44 153.6H129.28V165.76H141.44V153.6Z" fill="white"/>
<path d="M141.44 165.76H129.28V177.92H135.36C136.972 177.92 138.519 177.279 139.659 176.139C140.799 174.999 141.44 173.452 141.44 171.84" fill="white"/>
<path d="M129.28 226.56H141.44V214.4H135.36C133.748 214.4 132.201 215.04 131.061 216.18C129.921 217.321 129.28 218.867 129.28 220.48" fill="white"/>
<path d="M141.44 226.56H129.28V232.64C129.28 234.252 129.921 235.799 131.061 236.939C132.201 238.079 133.747 238.72 135.36 238.72C136.972 238.72 138.519 238.079 139.659 236.939C140.799 235.799 141.44 234.252 141.44 232.64" fill="white"/>
<path d="M135.36 263.04C138.718 263.04 141.44 260.318 141.44 256.96C141.44 253.602 138.718 250.88 135.36 250.88C132.002 250.88 129.28 253.602 129.28 256.96C129.28 260.318 132.002 263.04 135.36 263.04Z" fill="white"/>
<path d="M153.6 7.67969H141.44V19.8397H153.6V7.67969Z" fill="white"/>
<path d="M147.52 56.3202C150.878 56.3202 153.6 53.598 153.6 50.2402C153.6 46.8823 150.878 44.1602 147.52 44.1602C144.163 44.1602 141.44 46.8823 141.44 50.2402C141.44 53.598 144.163 56.3202 147.52 56.3202Z" fill="white"/>
<path d="M141.44 68.4797V80.6397H147.52C149.132 80.6397 150.679 79.9992 151.819 78.8589C152.959 77.7187 153.6 76.1723 153.6 74.5597C153.6 72.9472 152.959 71.4007 151.819 70.2605C150.679 69.1203 149.132 68.4797 147.52 68.4797" fill="white"/>
<path d="M153.6 92.7998H141.44V104.96H153.6V92.7998Z" fill="white"/>
<path d="M141.44 153.6V165.76H147.52C149.132 165.76 150.679 165.119 151.819 163.979C152.959 162.839 153.6 161.292 153.6 159.68C153.6 158.067 152.959 156.521 151.819 155.38C150.679 154.24 149.132 153.6 147.52 153.6" fill="white"/>
<path d="M153.6 214.399H141.44V226.559H153.6V214.399Z" fill="white"/>
<path d="M141.44 275.199H153.6V269.119C153.6 267.507 152.96 265.96 151.82 264.82C150.679 263.68 149.133 263.039 147.52 263.039C145.908 263.039 144.361 263.68 143.221 264.82C142.081 265.96 141.44 267.507 141.44 269.119" fill="white"/>
<path d="M153.6 287.359V275.199H141.44V281.279C141.44 282.892 142.081 284.438 143.221 285.579C144.361 286.719 145.908 287.359 147.52 287.359" fill="white"/>
<path d="M153.6 7.67969V19.8397H159.68C161.293 19.8397 162.839 19.1991 163.979 18.0589C165.12 16.9187 165.76 15.3722 165.76 13.7597C165.76 12.1472 165.12 10.6007 163.979 9.46048C162.839 8.32026 161.293 7.67969 159.68 7.67969" fill="white"/>
<path d="M153.6 92.7998H165.76V86.7198C165.76 85.1073 165.12 83.5608 163.979 82.4206C162.839 81.2804 161.293 80.6398 159.68 80.6398C158.068 80.6398 156.521 81.2804 155.381 82.4206C154.241 83.5608 153.6 85.1073 153.6 86.7198" fill="white"/>
<path d="M165.76 92.7998H153.6V104.96H165.76V92.7998Z" fill="white"/>
<path d="M153.6 129.279H165.76V123.199C165.76 121.587 165.12 120.04 163.979 118.9C162.839 117.76 161.293 117.119 159.68 117.119C158.068 117.119 156.521 117.76 155.381 118.9C154.241 120.04 153.6 121.587 153.6 123.199" fill="white"/>
<path d="M165.76 141.44V129.28H153.6V135.36C153.6 136.972 154.241 138.519 155.381 139.659C156.521 140.799 158.068 141.44 159.68 141.44" fill="white"/>
<path d="M153.6 190.08H165.76V177.92H159.68C158.068 177.92 156.521 178.561 155.381 179.701C154.241 180.841 153.6 182.388 153.6 184" fill="white"/>
<path d="M165.76 202.239V190.079H153.6V196.159C153.6 197.772 154.241 199.318 155.381 200.458C156.521 201.599 158.068 202.239 159.68 202.239" fill="white"/>
<path d="M153.6 214.399V226.559H165.76V220.479C165.76 218.867 165.12 217.32 163.979 216.18C162.839 215.04 161.293 214.399 159.68 214.399" fill="white"/>
<path d="M165.76 238.72V226.56H153.6V232.64C153.6 234.252 154.241 235.799 155.381 236.939C156.521 238.079 158.068 238.72 159.68 238.72" fill="white"/>
<path d="M165.76 263.04V250.88H159.68C158.068 250.88 156.521 251.521 155.381 252.661C154.241 253.801 153.6 255.348 153.6 256.96C153.6 258.573 154.241 260.119 155.381 261.259C156.521 262.399 158.068 263.04 159.68 263.04" fill="white"/>
<path d="M153.6 275.199V287.359H165.76V281.279C165.76 279.667 165.12 278.12 163.979 276.98C162.839 275.84 161.293 275.199 159.68 275.199" fill="white"/>
<path d="M165.76 287.359H153.6V299.519H165.76V287.359Z" fill="white"/>
<path d="M165.76 311.68V299.52H153.6V305.6C153.6 307.212 154.241 308.759 155.381 309.899C156.521 311.039 158.068 311.68 159.68 311.68" fill="white"/>
<path d="M177.92 32V19.84H171.84C170.227 19.84 168.681 20.4806 167.541 21.6208C166.4 22.761 165.76 24.3075 165.76 25.92C165.76 27.5325 166.4 29.079 167.541 30.2192C168.681 31.3594 170.227 32 171.84 32" fill="white"/>
<path d="M171.84 56.3202C175.198 56.3202 177.92 53.598 177.92 50.2402C177.92 46.8823 175.198 44.1602 171.84 44.1602C168.482 44.1602 165.76 46.8823 165.76 50.2402C165.76 53.598 168.482 56.3202 171.84 56.3202Z" fill="white"/>
<path d="M177.92 80.6396V68.4796H171.84C170.228 68.4796 168.681 69.1202 167.541 70.2604C166.401 71.4007 165.76 72.9471 165.76 74.5596C165.76 76.1722 166.401 77.7186 167.541 78.8589C168.681 79.9991 170.228 80.6396 171.84 80.6396" fill="white"/>
<path d="M165.76 92.7998V104.96H171.84C173.453 104.96 174.999 104.319 176.139 103.179C177.28 102.039 177.92 100.492 177.92 98.8798C177.92 97.2673 177.28 95.7208 176.139 94.5806C174.999 93.4404 173.453 92.7998 171.84 92.7998" fill="white"/>
<path d="M177.92 129.279H165.76V141.439H177.92V129.279Z" fill="white"/>
<path d="M177.92 141.44H165.76V147.52C165.76 149.132 166.401 150.679 167.541 151.819C168.681 152.959 170.228 153.6 171.84 153.6C173.453 153.6 174.999 152.959 176.14 151.819C177.28 150.679 177.92 149.132 177.92 147.52" fill="white"/>
<path d="M177.92 177.92H165.76V190.08H177.92V177.92Z" fill="white"/>
<path d="M177.92 190.08H165.76V202.24H177.92V190.08Z" fill="white"/>
<path d="M177.92 214.399V202.239H165.76V208.319C165.76 209.932 166.4 211.478 167.541 212.619C168.681 213.759 170.227 214.399 171.84 214.399" fill="white"/>
<path d="M165.76 226.56V238.72H177.92V232.64C177.92 231.027 177.28 229.481 176.139 228.34C174.999 227.2 173.453 226.56 171.84 226.56" fill="white"/>
<path d="M177.92 238.72H165.76V250.88H177.92V238.72Z" fill="white"/>
<path d="M177.92 250.88H165.76V263.04H177.92V250.88Z" fill="white"/>
<path d="M165.76 299.52V311.68H171.84C173.453 311.68 174.999 311.039 176.139 309.899C177.28 308.759 177.92 307.212 177.92 305.6C177.92 303.987 177.28 302.441 176.139 301.3C174.999 300.16 173.453 299.52 171.84 299.52" fill="white"/>
<path d="M177.92 19.8396V31.9996H190.08V25.9196C190.08 24.3071 189.44 22.7606 188.3 21.6204C187.159 20.4802 185.613 19.8396 184 19.8396" fill="white"/>
<path d="M190.08 44.1602V32.0002H177.92V38.0802C177.92 39.6927 178.561 41.2391 179.701 42.3794C180.841 43.5196 182.388 44.1602 184 44.1602" fill="white"/>
<path d="M177.92 68.4797H190.08V56.3197H184C182.388 56.3197 180.841 56.9603 179.701 58.1005C178.561 59.2407 177.92 60.7872 177.92 62.3997" fill="white"/>
<path d="M190.08 68.4797H177.92V80.6397H190.08V68.4797Z" fill="white"/>
<path d="M190.08 80.6396H177.92V86.7196C177.92 88.3322 178.561 89.8786 179.701 91.0189C180.841 92.1591 182.388 92.7996 184 92.7996C185.613 92.7996 187.159 92.1591 188.299 91.0189C189.44 89.8786 190.08 88.3322 190.08 86.7196" fill="white"/>
<path d="M177.92 129.279H190.08V117.119H184C182.387 117.119 180.841 117.76 179.701 118.9C178.56 120.04 177.92 121.587 177.92 123.199" fill="white"/>
<path d="M190.08 129.279H177.92V141.439H184C185.613 141.439 187.159 140.799 188.299 139.659C189.44 138.518 190.08 136.972 190.08 135.359" fill="white"/>
<path d="M190.08 165.76V153.6H184C182.388 153.6 180.841 154.24 179.701 155.381C178.561 156.521 177.92 158.067 177.92 159.68C177.92 161.292 178.561 162.839 179.701 163.979C180.841 165.119 182.388 165.76 184 165.76" fill="white"/>
<path d="M190.08 177.92H177.92V190.08H190.08V177.92Z" fill="white"/>
<path d="M177.92 202.239V214.399H184C185.612 214.399 187.159 213.759 188.299 212.618C189.439 211.478 190.08 209.932 190.08 208.319C190.08 206.707 189.439 205.16 188.299 204.02C187.159 202.88 185.612 202.239 184 202.239" fill="white"/>
<path d="M190.08 250.88H177.92V263.04H190.08V250.88Z" fill="white"/>
<path d="M177.92 287.359H190.08V281.279C190.08 279.667 189.439 278.12 188.299 276.98C187.159 275.84 185.612 275.199 184 275.199C182.387 275.199 180.841 275.84 179.701 276.98C178.56 278.12 177.92 279.667 177.92 281.279" fill="white"/>
<path d="M190.08 287.359H177.92V293.439C177.92 295.052 178.561 296.598 179.701 297.739C180.841 298.879 182.388 299.519 184 299.519C185.613 299.519 187.159 298.879 188.299 297.739C189.44 296.598 190.08 295.052 190.08 293.439" fill="white"/>
<path d="M196.16 19.8397C199.518 19.8397 202.24 17.1176 202.24 13.7597C202.24 10.4018 199.518 7.67969 196.16 7.67969C192.802 7.67969 190.08 10.4018 190.08 13.7597C190.08 17.1176 192.802 19.8397 196.16 19.8397Z" fill="white"/>
<path d="M202.24 32H190.08V44.16H202.24V32Z" fill="white"/>
<path d="M190.08 56.3193V68.4793H196.16C197.773 68.4793 199.319 67.8388 200.459 66.6985C201.6 65.5583 202.24 64.0119 202.24 62.3993C202.24 60.7868 201.6 59.2403 200.459 58.1001C199.319 56.9599 197.773 56.3193 196.16 56.3193" fill="white"/>
<path d="M202.24 117.12H190.08V129.28H202.24V117.12Z" fill="white"/>
<path d="M190.08 153.6H202.24V141.44H196.16C194.548 141.44 193.001 142.08 191.861 143.22C190.721 144.361 190.08 145.907 190.08 147.52" fill="white"/>
<path d="M202.24 153.6H190.08V165.76H202.24V153.6Z" fill="white"/>
<path d="M202.24 177.92H190.08V190.08H202.24V177.92Z" fill="white"/>
<path d="M202.24 226.56V214.4H196.16C194.548 214.4 193.001 215.04 191.861 216.18C190.721 217.321 190.08 218.867 190.08 220.48C190.08 222.092 190.721 223.639 191.861 224.779C193.001 225.919 194.548 226.56 196.16 226.56" fill="white"/>
<path d="M190.08 250.88H202.24V238.72H196.16C194.548 238.72 193.001 239.36 191.861 240.5C190.721 241.641 190.08 243.187 190.08 244.8" fill="white"/>
<path d="M202.24 250.88H190.08V263.04H202.24V250.88Z" fill="white"/>
<path d="M202.24 311.68V299.52H196.16C194.548 299.52 193.001 300.16 191.861 301.3C190.721 302.441 190.08 303.987 190.08 305.6C190.08 307.212 190.721 308.759 191.861 309.899C193.001 311.039 194.548 311.68 196.16 311.68" fill="white"/>
<path d="M202.24 32V44.16H208.32C209.933 44.16 211.479 43.5194 212.619 42.3792C213.76 41.239 214.4 39.6925 214.4 38.08C214.4 36.4675 213.76 34.921 212.619 33.7808C211.479 32.6406 209.933 32 208.32 32" fill="white"/>
<path d="M208.32 92.7996C211.678 92.7996 214.4 90.0775 214.4 86.7196C214.4 83.3618 211.678 80.6396 208.32 80.6396C204.962 80.6396 202.24 83.3618 202.24 86.7196C202.24 90.0775 204.962 92.7996 208.32 92.7996Z" fill="white"/>
<path d="M202.24 117.12H214.4V104.96H208.32C206.708 104.96 205.161 105.601 204.021 106.741C202.881 107.881 202.24 109.428 202.24 111.04" fill="white"/>
<path d="M214.4 117.12H202.24V129.28H214.4V117.12Z" fill="white"/>
<path d="M202.24 141.44V153.6H214.4V147.52C214.4 145.907 213.76 144.361 212.619 143.22C211.479 142.08 209.933 141.44 208.32 141.44" fill="white"/>
<path d="M214.4 153.6H202.24V165.76H208.32C209.933 165.76 211.479 165.119 212.62 163.979C213.76 162.839 214.4 161.292 214.4 159.68" fill="white"/>
<path d="M214.4 177.92H202.24V190.08H214.4V177.92Z" fill="white"/>
<path d="M202.24 214.399H214.4V202.239H208.32C206.708 202.239 205.161 202.88 204.021 204.02C202.881 205.16 202.24 206.707 202.24 208.319" fill="white"/>
<path d="M214.4 214.399H202.24V226.559H214.4V214.399Z" fill="white"/>
<path d="M214.4 226.56H202.24V238.72H214.4V226.56Z" fill="white"/>
<path d="M214.4 238.72H202.24V250.88H214.4V238.72Z" fill="white"/>
<path d="M214.4 250.88H202.24V263.04H214.4V250.88Z" fill="white"/>
<path d="M214.4 263.04H202.24V275.2H214.4V263.04Z" fill="white"/>
<path d="M214.4 275.199H202.24V287.359H214.4V275.199Z" fill="white"/>
<path d="M214.4 287.359H202.24V299.519H214.4V287.359Z" fill="white"/>
<path d="M214.4 299.52H202.24V311.68H214.4V299.52Z" fill="white"/>
<path d="M214.4 104.96V117.12H226.56V111.04C226.56 109.427 225.92 107.881 224.78 106.741C223.639 105.601 222.093 104.96 220.48 104.96" fill="white"/>
<path d="M226.56 117.12H214.4V129.28H220.48C222.093 129.28 223.639 128.64 224.779 127.499C225.919 126.359 226.56 124.813 226.56 123.2" fill="white"/>
<path d="M214.4 177.92V190.08H226.56V184C226.56 182.387 225.92 180.841 224.78 179.7C223.639 178.56 222.093 177.92 220.48 177.92" fill="white"/>
<path d="M226.56 190.08H214.4V202.24H226.56V190.08Z" fill="white"/>
<path d="M226.56 202.239H214.4V214.399H226.56V202.239Z" fill="white"/>
<path d="M226.56 250.88H214.4V263.04H226.56V250.88Z" fill="white"/>
<path d="M226.56 275.199H214.4V287.359H226.56V275.199Z" fill="white"/>
<path d="M226.56 299.52H214.4V311.68H226.56V299.52Z" fill="white"/>
<path d="M238.72 177.92V165.76H232.64C231.028 165.76 229.481 166.4 228.341 167.54C227.201 168.681 226.56 170.227 226.56 171.84C226.56 173.452 227.201 174.999 228.341 176.139C229.481 177.279 231.028 177.92 232.64 177.92" fill="white"/>
<path d="M238.72 202.239H226.56V214.399H238.72V202.239Z" fill="white"/>
<path d="M232.64 238.72C235.998 238.72 238.72 235.997 238.72 232.64C238.72 229.282 235.998 226.56 232.64 226.56C229.282 226.56 226.56 229.282 226.56 232.64C226.56 235.997 229.282 238.72 232.64 238.72Z" fill="white"/>
<path d="M238.72 250.88H226.56V263.04H238.72V250.88Z" fill="white"/>
<path d="M226.56 275.199V287.359H238.72V281.279C238.72 279.667 238.079 278.12 236.939 276.98C235.799 275.84 234.253 275.199 232.64 275.199" fill="white"/>
<path d="M238.72 287.359H226.56V299.519H238.72V287.359Z" fill="white"/>
<path d="M238.72 299.52H226.56V311.68H238.72V299.52Z" fill="white"/>
<path d="M238.72 117.12H250.88V111.04C250.88 109.428 250.24 107.881 249.099 106.741C247.959 105.601 246.413 104.96 244.8 104.96C243.188 104.96 241.641 105.601 240.501 106.741C239.361 107.881 238.72 109.428 238.72 111.04" fill="white"/>
<path d="M250.88 117.12H238.72V123.2C238.72 124.813 239.361 126.359 240.501 127.499C241.641 128.64 243.188 129.28 244.8 129.28C246.413 129.28 247.959 128.64 249.1 127.499C250.24 126.359 250.88 124.813 250.88 123.2" fill="white"/>
<path d="M238.72 165.76V177.92H250.88V171.84C250.88 170.227 250.24 168.681 249.099 167.541C247.959 166.4 246.413 165.76 244.8 165.76" fill="white"/>
<path d="M250.88 177.92H238.72V190.08H250.88V177.92Z" fill="white"/>
<path d="M250.88 190.08H238.72V202.24H250.88V190.08Z" fill="white"/>
<path d="M250.88 202.239H238.72V214.399H250.88V202.239Z" fill="white"/>
<path d="M250.88 250.88H238.72V263.04H250.88V250.88Z" fill="white"/>
<path d="M238.72 299.52V311.68H244.8C246.413 311.68 247.959 311.039 249.099 309.899C250.24 308.759 250.88 307.212 250.88 305.6C250.88 303.987 250.24 302.441 249.099 301.3C247.959 300.16 246.413 299.52 244.8 299.52" fill="white"/>
<path d="M263.04 165.76V153.6H256.96C255.348 153.6 253.801 154.24 252.661 155.381C251.521 156.521 250.88 158.067 250.88 159.68C250.88 161.292 251.521 162.839 252.661 163.979C253.801 165.119 255.348 165.76 256.96 165.76" fill="white"/>
<path d="M250.88 177.92V190.08H256.96C258.573 190.08 260.119 189.439 261.26 188.299C262.4 187.159 263.04 185.612 263.04 184C263.04 182.387 262.4 180.841 261.26 179.7C260.119 178.56 258.573 177.92 256.96 177.92" fill="white"/>
<path d="M263.04 202.239H250.88V214.399H263.04V202.239Z" fill="white"/>
<path d="M263.04 214.399H250.88V226.559H263.04V214.399Z" fill="white"/>
<path d="M263.04 226.56H250.88V238.72H263.04V226.56Z" fill="white"/>
<path d="M263.04 238.72H250.88V250.88H263.04V238.72Z" fill="white"/>
<path d="M263.04 250.88H250.88V263.04H263.04V250.88Z" fill="white"/>
<path d="M263.04 275.199V263.039H250.88V269.119C250.88 270.732 251.521 272.278 252.661 273.418C253.801 274.559 255.348 275.199 256.96 275.199" fill="white"/>
<path d="M275.2 117.12V104.96H269.12C267.508 104.96 265.961 105.601 264.821 106.741C263.681 107.881 263.04 109.428 263.04 111.04C263.04 112.653 263.681 114.199 264.821 115.339C265.961 116.48 267.508 117.12 269.12 117.12" fill="white"/>
<path d="M269.12 141.439C272.478 141.439 275.2 138.717 275.2 135.359C275.2 132.001 272.478 129.279 269.12 129.279C265.762 129.279 263.04 132.001 263.04 135.359C263.04 138.717 265.762 141.439 269.12 141.439Z" fill="white"/>
<path d="M263.04 153.6V165.76H269.12C270.733 165.76 272.279 165.119 273.419 163.979C274.559 162.839 275.2 161.292 275.2 159.68C275.2 158.067 274.559 156.521 273.419 155.38C272.279 154.24 270.733 153.6 269.12 153.6" fill="white"/>
<path d="M275.2 202.239H263.04V214.399H275.2V202.239Z" fill="white"/>
<path d="M275.2 214.399H263.04V226.559H275.2V214.399Z" fill="white"/>
<path d="M275.2 226.56H263.04V238.72H275.2V226.56Z" fill="white"/>
<path d="M275.2 250.88H263.04V263.04H275.2V250.88Z" fill="white"/>
<path d="M275.2 263.04H263.04V275.2H275.2V263.04Z" fill="white"/>
<path d="M275.2 275.199H263.04V287.359H275.2V275.199Z" fill="white"/>
<path d="M275.2 287.359H263.04V299.519H275.2V287.359Z" fill="white"/>
<path d="M275.2 299.52H263.04V305.6C263.04 307.212 263.681 308.759 264.821 309.899C265.961 311.039 267.508 311.68 269.12 311.68C270.733 311.68 272.279 311.039 273.419 309.899C274.56 308.759 275.2 307.212 275.2 305.6" fill="white"/>
<path d="M287.36 104.96H275.2V117.12H287.36V104.96Z" fill="white"/>
<path d="M287.36 117.12H275.2V123.2C275.2 124.813 275.841 126.359 276.981 127.499C278.121 128.64 279.668 129.28 281.28 129.28C282.893 129.28 284.439 128.64 285.58 127.499C286.72 126.359 287.36 124.813 287.36 123.2" fill="white"/>
<path d="M281.28 153.6C284.638 153.6 287.36 150.878 287.36 147.52C287.36 144.162 284.638 141.44 281.28 141.44C277.922 141.44 275.2 144.162 275.2 147.52C275.2 150.878 277.922 153.6 281.28 153.6Z" fill="white"/>
<path d="M281.28 177.92C284.638 177.92 287.36 175.198 287.36 171.84C287.36 168.482 284.638 165.76 281.28 165.76C277.922 165.76 275.2 168.482 275.2 171.84C275.2 175.198 277.922 177.92 281.28 177.92Z" fill="white"/>
<path d="M275.2 202.239H287.36V196.159C287.36 194.547 286.72 193 285.579 191.86C284.439 190.72 282.893 190.079 281.28 190.079C279.668 190.079 278.121 190.72 276.981 191.86C275.841 193 275.2 194.547 275.2 196.159" fill="white"/>
<path d="M287.36 202.239H275.2V214.399H287.36V202.239Z" fill="white"/>
<path d="M287.36 214.399H275.2V226.559H287.36V214.399Z" fill="white"/>
<path d="M287.36 226.56H275.2V238.72H281.28C282.893 238.72 284.439 238.079 285.58 236.939C286.72 235.799 287.36 234.252 287.36 232.64" fill="white"/>
<path d="M287.36 250.88H275.2V263.04H287.36V250.88Z" fill="white"/>
<path d="M287.36 275.199H275.2V287.359H287.36V275.199Z" fill="white"/>
<path d="M287.36 287.359H275.2V299.519H281.28C282.893 299.519 284.439 298.879 285.58 297.739C286.72 296.598 287.36 295.052 287.36 293.439" fill="white"/>
<path d="M287.36 104.96V117.12H293.44C295.053 117.12 296.599 116.479 297.74 115.339C298.88 114.199 299.52 112.652 299.52 111.04C299.52 109.427 298.88 107.881 297.74 106.741C296.599 105.601 295.053 104.96 293.44 104.96" fill="white"/>
<path d="M293.44 141.439C296.798 141.439 299.52 138.717 299.52 135.359C299.52 132.001 296.798 129.279 293.44 129.279C290.082 129.279 287.36 132.001 287.36 135.359C287.36 138.717 290.082 141.439 293.44 141.439Z" fill="white"/>
<path d="M293.44 190.08C296.798 190.08 299.52 187.358 299.52 184C299.52 180.642 296.798 177.92 293.44 177.92C290.082 177.92 287.36 180.642 287.36 184C287.36 187.358 290.082 190.08 293.44 190.08Z" fill="white"/>
<path d="M299.52 250.88H287.36V263.04H299.52V250.88Z" fill="white"/>
<path d="M299.52 275.199H287.36V287.359H299.52V275.199Z" fill="white"/>
<path d="M305.6 129.28C308.958 129.28 311.68 126.558 311.68 123.2C311.68 119.842 308.958 117.12 305.6 117.12C302.242 117.12 299.52 119.842 299.52 123.2C299.52 126.558 302.242 129.28 305.6 129.28Z" fill="white"/>
<path d="M305.6 153.6C308.958 153.6 311.68 150.878 311.68 147.52C311.68 144.162 308.958 141.44 305.6 141.44C302.242 141.44 299.52 144.162 299.52 147.52C299.52 150.878 302.242 153.6 305.6 153.6Z" fill="white"/>
<path d="M305.6 226.559C308.958 226.559 311.68 223.837 311.68 220.479C311.68 217.122 308.958 214.399 305.6 214.399C302.242 214.399 299.52 217.122 299.52 220.479C299.52 223.837 302.242 226.559 305.6 226.559Z" fill="white"/>
<path d="M299.52 250.88H311.68V244.8C311.68 243.187 311.039 241.641 309.899 240.5C308.759 239.36 307.213 238.72 305.6 238.72C303.988 238.72 302.441 239.36 301.301 240.5C300.161 241.641 299.52 243.187 299.52 244.8" fill="white"/>
<path d="M311.68 250.88H299.52V263.04H311.68V250.88Z" fill="white"/>
<path d="M311.68 263.04H299.52V275.2H311.68V263.04Z" fill="white"/>
<path d="M311.68 275.199H299.52V287.359H311.68V275.199Z" fill="white"/>
<path d="M311.68 287.359H299.52V299.519H311.68V287.359Z" fill="white"/>
<path d="M311.68 299.52H299.52V305.6C299.52 307.212 300.161 308.759 301.301 309.899C302.441 311.039 303.988 311.68 305.6 311.68C307.213 311.68 308.759 311.039 309.899 309.899C311.04 308.759 311.68 307.212 311.68 305.6" fill="white"/>
<path fill-rule="evenodd" clip-rule="evenodd" d="M7.68018 38.0797V62.3997C7.68018 70.4623 10.883 78.1946 16.5841 83.8957C22.2852 89.5968 30.0176 92.7997 38.0802 92.7997H62.4002C70.4628 92.7997 78.1951 89.5968 83.8962 83.8957C89.5973 78.1946 92.8002 70.4623 92.8002 62.3997V38.0797C92.8002 30.0171 89.5973 22.2847 83.8962 16.5836C78.1951 10.8825 70.4628 7.67969 62.4002 7.67969H38.0802C30.0176 7.67969 22.2852 10.8825 16.5841 16.5836C10.883 22.2847 7.68018 30.0171 7.68018 38.0797ZM38.0802 19.8397H62.4002C67.2377 19.8397 71.8771 21.7614 75.2978 25.1821C78.7185 28.6027 80.6402 33.2421 80.6402 38.0797V62.3997C80.6402 67.2372 78.7185 71.8767 75.2978 75.2973C71.8771 78.718 67.2377 80.6397 62.4002 80.6397H38.0802C33.2426 80.6397 28.6032 78.718 25.1826 75.2973C21.7619 71.8767 19.8402 67.2372 19.8402 62.3997V38.0797C19.8402 33.2421 21.7619 28.6027 25.1826 25.1821C28.6032 21.7614 33.2426 19.8397 38.0802 19.8397Z" fill="white"/>
<path d="M50.24 68.48C60.3137 68.48 68.48 60.3137 68.48 50.24C68.48 40.1663 60.3137 32 50.24 32C40.1663 32 32 40.1663 32 50.24C32 60.3137 40.1663 68.48 50.24 68.48Z" fill="white"/>
<path fill-rule="evenodd" clip-rule="evenodd" d="M281.28 7.67969L256.96 7.67969C248.898 7.67969 241.165 10.8825 235.464 16.5836C229.763 22.2847 226.56 30.0171 226.56 38.0797V62.3997C226.56 70.4623 229.763 78.1946 235.464 83.8957C241.165 89.5969 248.898 92.7997 256.96 92.7997H281.28C289.343 92.7997 297.075 89.5969 302.776 83.8957C308.477 78.1946 311.68 70.4623 311.68 62.3997V38.0797C311.68 30.0171 308.477 22.2847 302.776 16.5836C297.075 10.8825 289.343 7.67969 281.28 7.67969ZM299.52 38.0797V62.3997C299.52 67.2372 297.598 71.8767 294.178 75.2973C290.757 78.718 286.118 80.6397 281.28 80.6397H256.96C252.123 80.6397 247.483 78.718 244.063 75.2973C240.642 71.8767 238.72 67.2372 238.72 62.3997V38.0797C238.72 33.2421 240.642 28.6027 244.063 25.1821C247.483 21.7614 252.123 19.8397 256.96 19.8397L281.28 19.8397C286.118 19.8397 290.757 21.7614 294.178 25.1821C297.598 28.6027 299.52 33.2421 299.52 38.0797Z" fill="white"/>
<path d="M250.88 50.24C250.88 60.3137 259.047 68.48 269.12 68.48C279.194 68.48 287.36 60.3137 287.36 50.24C287.36 40.1663 279.194 32 269.12 32C259.047 32 250.88 40.1663 250.88 50.24Z" fill="white"/>
<path fill-rule="evenodd" clip-rule="evenodd" d="M38.0802 311.68H62.4002C70.4628 311.68 78.1951 308.477 83.8962 302.776C89.5973 297.075 92.8002 289.342 92.8002 281.28V256.96C92.8002 248.897 89.5973 241.165 83.8962 235.464C78.1951 229.763 70.4628 226.56 62.4002 226.56H38.0802C30.0176 226.56 22.2852 229.763 16.5841 235.464C10.883 241.165 7.68018 248.897 7.68018 256.96L7.68018 281.28C7.68018 289.342 10.883 297.075 16.5841 302.776C22.2852 308.477 30.0176 311.68 38.0802 311.68ZM19.8402 281.28L19.8402 256.96C19.8402 252.122 21.7619 247.483 25.1825 244.062C28.6032 240.641 33.2426 238.72 38.0802 238.72H62.4002C67.2377 238.72 71.8772 240.641 75.2978 244.062C78.7185 247.483 80.6402 252.122 80.6402 256.96V281.28C80.6402 286.117 78.7185 290.757 75.2978 294.177C71.8772 297.598 67.2377 299.52 62.4002 299.52H38.0802C33.2426 299.52 28.6032 297.598 25.1825 294.177C21.7619 290.757 19.8402 286.117 19.8402 281.28Z" fill="white"/>
<path d="M68.48 269.119C68.48 259.046 60.3137 250.879 50.24 250.879C40.1663 250.879 32 259.046 32 269.119C32 279.193 40.1663 287.359 50.24 287.359C60.3137 287.359 68.48 279.193 68.48 269.119Z" fill="white"/>
</mask>
<g mask="url(#mask0_1080_3677)">
<path d="M320 0H0V320H320V0Z" fill="black"/>
</g>
</svg>
